# xmcd
#
# Track frame offsets:
#	150
#	11319
#	24017
#	38888
#	52287
#	64372
#	77553
#	90585
#	103014
#	114389
#	126544
#	137487
#
# Disc length: 2020 seconds
#
# Revision: 0
# Processed by: cddbd v1.5.2PL0 Copyright (c) Steve Scherf et al.
# Submitted via: audiograbber 1.83.01
#
DISCID=9807e20c
DTITLE=Matchbox - Flying Colours
DYEAR=1981
DGENRE=Rock
TTITLE0=Love's Made A Fool Of You
TTITLE1=Heartaches By The Number
TTITLE2=Angels On Sunday
TTITLE3=Lone Star Dreamers
TTITLE4=Bonaparte's Retreat
TTITLE5=Whiplash
TTITLE6=Babe's In The Wood
TTITLE7=Don't Let The Stars Get In Your Eyes
TTITLE8=You're The One
TTITLE9=24 Hours
TTITLE10=Wish I'd Never (Said Hello)
TTITLE11=Arabella's On Her Way
EXTD=
EXTT0=
EXTT1=
EXTT2=
EXTT3=
EXTT4=
EXTT5=
EXTT6=
EXTT7=
EXTT8=
EXTT9=
EXTT10=
EXTT11=
PLAYORDER=
